# xmcd
#
# Track frame offsets:
#	150
#	11054
#	19345
#	30645
#	41625
#	52216
#	61372
#	72238
#	79264
#
# Disc length: 1232 seconds
#
# Revision: 1
# Processed by: cddbd v1.5.2PL0 Copyright (c) Steve Scherf et al.
# Submitted via: audiograbber 1.83.01
#
DISCID=7b04ce09
DTITLE=Tim Vantol - Road Sweet Road
DYEAR=2010
DGENRE=
TTITLE0=Road Sweet Road
TTITLE1=Four Wheels And A Sixstring
TTITLE2=Nothing
TTITLE3=Broken Mirror
TTITLE4=What Norm?
TTITLE5=Problems Are For Free
TTITLE6=Do Whatever The Fuck You Want
TTITLE7=Caged Birds
TTITLE8=Mercy Will Kill Me
EXTD=
EXTT0=
EXTT1=
EXTT2=
EXTT3=
EXTT4=
EXTT5=
EXTT6=
EXTT7=
EXTT8=
PLAYORDER=
